<svg id="Layer_1" data-name="Layer 1" xmlns="http://www.w3.org/2000/svg" viewBox="0 0 352 512"><defs><style>.cls-1{fill:#0000ea;}</style></defs><path class="cls-1" d="M192,0C90,.32,16,83,16,176A175,175,0,0,0,59.56,291.77c16.53,18.85,42.35,58.23,52.22,91.45,0,.25.06.52.1.78H272.12c0-.26.07-.51.1-.78,9.87-33.22,35.69-72.6,52.22-91.45A175.9,175.9,0,0,0,192,0Zm96.36,260.12c-15.66,17.84-35,46.29-49.05,75.88H144.69c-14-29.59-33.38-58-49-75.87A127.6,127.6,0,0,1,64,176c0-62.72,48.11-127.74,128-128,70.59,0,128,57.42,128,128A127.59,127.59,0,0,1,288.36,260.12ZM112.06,454.33a32.14,32.14,0,0,0,5.35,17.7l17.09,25.69c5.25,7.87,17.19,14.28,26.66,14.28h61.72c9.43,0,21.37-6.41,26.62-14.28L266.59,472a37.68,37.68,0,0,0,5.35-17.7L272,416H112ZM192,240a32,32,0,1,0,32,32A32,32,0,0,0,192,240Zm0-32a24,24,0,0,0,24-24V104a24,24,0,0,0-48,0v80A24,24,0,0,0,192,208Z" transform="translate(-16)"/></svg>